<mxfile host="65bd71144e">
    <diagram id="C5RBs43oDa-KdzZeNtuy" name="Page-1">
        <mxGraphModel dx="614" dy="478" grid="1" gridSize="10" guides="1" tooltips="1" connect="1" arrows="1" fold="1" page="1" pageScale="1" pageWidth="827" pageHeight="1169" math="0" shadow="0">
            <root>
                <mxCell id="WIyWlLk6GJQsqaUBKTNV-0"/>
                <mxCell id="WIyWlLk6GJQsqaUBKTNV-1" parent="WIyWlLk6GJQsqaUBKTNV-0"/>
                <mxCell id="pdH0zqSJrU-gVliZ878T-4" value="Tables being processed to DFs" style="ellipse;whiteSpace=wrap;html=1;aspect=fixed;fontColor=#333333;strokeColor=#666666;fillColor=#f5f5f5;" parent="WIyWlLk6GJQsqaUBKTNV-1" vertex="1">
                    <mxGeometry x="110" y="270" width="80" height="80" as="geometry"/>
                </mxCell>
                <mxCell id="pdH0zqSJrU-gVliZ878T-5" value="" style="rounded=1;whiteSpace=wrap;html=1;fontColor=default;strokeColor=default;fillColor=#FFFFFF;" parent="WIyWlLk6GJQsqaUBKTNV-1" vertex="1">
                    <mxGeometry x="75" y="50" width="150" height="190" as="geometry"/>
                </mxCell>
                <mxCell id="pdH0zqSJrU-gVliZ878T-6" value="Target path" style="rounded=1;whiteSpace=wrap;html=1;fontColor=#333333;strokeColor=#666666;fillColor=#f5f5f5;" parent="WIyWlLk6GJQsqaUBKTNV-1" vertex="1">
                    <mxGeometry x="85" y="100" width="130" height="40" as="geometry"/>
                </mxCell>
                <mxCell id="pdH0zqSJrU-gVliZ878T-7" value="Destination path" style="rounded=1;whiteSpace=wrap;html=1;fontColor=#333333;strokeColor=#666666;fillColor=#f5f5f5;" parent="WIyWlLk6GJQsqaUBKTNV-1" vertex="1">
                    <mxGeometry x="85" y="180" width="130" height="40" as="geometry"/>
                </mxCell>
                <mxCell id="pdH0zqSJrU-gVliZ878T-8" value="Target data type" style="rounded=1;whiteSpace=wrap;html=1;fontColor=#333333;strokeColor=#666666;fillColor=#f5f5f5;" parent="WIyWlLk6GJQsqaUBKTNV-1" vertex="1">
                    <mxGeometry x="85" y="70" width="130" height="20" as="geometry"/>
                </mxCell>
                <mxCell id="pdH0zqSJrU-gVliZ878T-9" value="Destination data type" style="rounded=1;whiteSpace=wrap;html=1;fontColor=#333333;strokeColor=#666666;fillColor=#f5f5f5;" parent="WIyWlLk6GJQsqaUBKTNV-1" vertex="1">
                    <mxGeometry x="85" y="150" width="130" height="20" as="geometry"/>
                </mxCell>
                <mxCell id="pdH0zqSJrU-gVliZ878T-10" value="" style="endArrow=none;html=1;rounded=0;fontColor=default;entryX=0.5;entryY=1;entryDx=0;entryDy=0;strokeColor=default;labelBackgroundColor=default;exitX=0.5;exitY=0;exitDx=0;exitDy=0;" parent="WIyWlLk6GJQsqaUBKTNV-1" source="pdH0zqSJrU-gVliZ878T-6" target="pdH0zqSJrU-gVliZ878T-8" edge="1">
                    <mxGeometry width="50" height="50" relative="1" as="geometry">
                        <mxPoint x="190" y="190" as="sourcePoint"/>
                        <mxPoint x="240" y="140" as="targetPoint"/>
                    </mxGeometry>
                </mxCell>
                <mxCell id="pdH0zqSJrU-gVliZ878T-11" value="" style="endArrow=none;html=1;rounded=0;labelBackgroundColor=default;fontColor=default;strokeColor=default;entryX=0.5;entryY=1;entryDx=0;entryDy=0;exitX=0.5;exitY=0;exitDx=0;exitDy=0;" parent="WIyWlLk6GJQsqaUBKTNV-1" source="pdH0zqSJrU-gVliZ878T-9" target="pdH0zqSJrU-gVliZ878T-6" edge="1">
                    <mxGeometry width="50" height="50" relative="1" as="geometry">
                        <mxPoint x="130" y="180" as="sourcePoint"/>
                        <mxPoint x="180" y="130" as="targetPoint"/>
                    </mxGeometry>
                </mxCell>
                <mxCell id="pdH0zqSJrU-gVliZ878T-12" value="" style="endArrow=none;html=1;rounded=0;labelBackgroundColor=default;fontColor=default;strokeColor=default;entryX=0.5;entryY=1;entryDx=0;entryDy=0;exitX=0.5;exitY=0;exitDx=0;exitDy=0;" parent="WIyWlLk6GJQsqaUBKTNV-1" source="pdH0zqSJrU-gVliZ878T-7" target="pdH0zqSJrU-gVliZ878T-9" edge="1">
                    <mxGeometry width="50" height="50" relative="1" as="geometry">
                        <mxPoint x="140" y="210" as="sourcePoint"/>
                        <mxPoint x="190" y="160" as="targetPoint"/>
                    </mxGeometry>
                </mxCell>
                <mxCell id="pdH0zqSJrU-gVliZ878T-13" value="" style="endArrow=classic;html=1;rounded=0;labelBackgroundColor=default;fontColor=default;exitX=0.5;exitY=1;exitDx=0;exitDy=0;entryX=0.5;entryY=0;entryDx=0;entryDy=0;fillColor=#f5f5f5;strokeColor=#FFFFFF;" parent="WIyWlLk6GJQsqaUBKTNV-1" source="pdH0zqSJrU-gVliZ878T-5" target="pdH0zqSJrU-gVliZ878T-4" edge="1">
                    <mxGeometry width="50" height="50" relative="1" as="geometry">
                        <mxPoint x="180" y="370" as="sourcePoint"/>
                        <mxPoint x="230" y="320" as="targetPoint"/>
                    </mxGeometry>
                </mxCell>
                <mxCell id="pdH0zqSJrU-gVliZ878T-15" value="" style="rounded=1;whiteSpace=wrap;html=1;fontColor=#333333;strokeColor=#666666;fillColor=#f5f5f5;" parent="WIyWlLk6GJQsqaUBKTNV-1" vertex="1">
                    <mxGeometry x="260" y="50" width="150" height="190" as="geometry"/>
                </mxCell>
                <mxCell id="pdH0zqSJrU-gVliZ878T-21" value="" style="endArrow=none;html=1;rounded=0;labelBackgroundColor=default;fontColor=default;strokeColor=default;entryX=0.5;entryY=1;entryDx=0;entryDy=0;exitX=0.5;exitY=0;exitDx=0;exitDy=0;fillColor=default;" parent="WIyWlLk6GJQsqaUBKTNV-1" edge="1">
                    <mxGeometry width="50" height="50" relative="1" as="geometry">
                        <mxPoint x="335" y="150" as="sourcePoint"/>
                        <mxPoint x="365" y="130" as="targetPoint"/>
                    </mxGeometry>
                </mxCell>
                <mxCell id="pdH0zqSJrU-gVliZ878T-23" value="Display column names and datatypes." style="ellipse;whiteSpace=wrap;html=1;aspect=fixed;fontColor=#333333;strokeColor=#666666;fillColor=#f5f5f5;" parent="WIyWlLk6GJQsqaUBKTNV-1" vertex="1">
                    <mxGeometry x="295" y="270" width="80" height="80" as="geometry"/>
                </mxCell>
                <mxCell id="pdH0zqSJrU-gVliZ878T-24" value="" style="endArrow=classic;html=1;rounded=0;labelBackgroundColor=default;fontColor=default;fillColor=default;exitX=0.5;exitY=0;exitDx=0;exitDy=0;entryX=0.5;entryY=1;entryDx=0;entryDy=0;strokeColor=#FFFFFF;" parent="WIyWlLk6GJQsqaUBKTNV-1" source="pdH0zqSJrU-gVliZ878T-23" target="pdH0zqSJrU-gVliZ878T-15" edge="1">
                    <mxGeometry width="50" height="50" relative="1" as="geometry">
                        <mxPoint x="320" y="250" as="sourcePoint"/>
                        <mxPoint x="420" y="260" as="targetPoint"/>
                    </mxGeometry>
                </mxCell>
                <mxCell id="pdH0zqSJrU-gVliZ878T-25" value="" style="endArrow=classic;html=1;rounded=0;labelBackgroundColor=default;fontColor=default;fillColor=default;exitX=1;exitY=0.5;exitDx=0;exitDy=0;entryX=0;entryY=0.5;entryDx=0;entryDy=0;strokeColor=#FFFFFF;" parent="WIyWlLk6GJQsqaUBKTNV-1" source="pdH0zqSJrU-gVliZ878T-4" target="pdH0zqSJrU-gVliZ878T-23" edge="1">
                    <mxGeometry width="50" height="50" relative="1" as="geometry">
                        <mxPoint x="300" y="290" as="sourcePoint"/>
                        <mxPoint x="350" y="240" as="targetPoint"/>
                    </mxGeometry>
                </mxCell>
                <mxCell id="pdH0zqSJrU-gVliZ878T-27" value="Select columns for DF1 (source)" style="rounded=1;whiteSpace=wrap;html=1;fontColor=#333333;strokeColor=#666666;fillColor=#f5f5f5;" parent="WIyWlLk6GJQsqaUBKTNV-1" vertex="1">
                    <mxGeometry x="275" y="165" width="120" height="60" as="geometry"/>
                </mxCell>
                <mxCell id="pdH0zqSJrU-gVliZ878T-28" value="Select columns for DF2 (destination)" style="rounded=1;whiteSpace=wrap;html=1;fontColor=#333333;strokeColor=#666666;fillColor=#f5f5f5;" parent="WIyWlLk6GJQsqaUBKTNV-1" vertex="1">
                    <mxGeometry x="275" y="95" width="120" height="60" as="geometry"/>
                </mxCell>
                <mxCell id="pdH0zqSJrU-gVliZ878T-29" value="Select the checks" style="rounded=1;whiteSpace=wrap;html=1;fontColor=#333333;strokeColor=#666666;fillColor=#f5f5f5;" parent="WIyWlLk6GJQsqaUBKTNV-1" vertex="1">
                    <mxGeometry x="275" y="65" width="120" height="20" as="geometry"/>
                </mxCell>
                <mxCell id="pdH0zqSJrU-gVliZ878T-30" value="" style="endArrow=none;html=1;rounded=0;labelBackgroundColor=default;fontColor=default;strokeColor=default;fillColor=default;exitX=0.5;exitY=0;exitDx=0;exitDy=0;entryX=0.5;entryY=1;entryDx=0;entryDy=0;" parent="WIyWlLk6GJQsqaUBKTNV-1" source="pdH0zqSJrU-gVliZ878T-27" target="pdH0zqSJrU-gVliZ878T-28" edge="1">
                    <mxGeometry width="50" height="50" relative="1" as="geometry">
                        <mxPoint x="290" y="180" as="sourcePoint"/>
                        <mxPoint x="340" y="130" as="targetPoint"/>
                    </mxGeometry>
                </mxCell>
                <mxCell id="pdH0zqSJrU-gVliZ878T-31" value="" style="endArrow=none;html=1;rounded=0;labelBackgroundColor=default;fontColor=default;strokeColor=default;fillColor=default;exitX=0.5;exitY=0;exitDx=0;exitDy=0;entryX=0.5;entryY=1;entryDx=0;entryDy=0;" parent="WIyWlLk6GJQsqaUBKTNV-1" source="pdH0zqSJrU-gVliZ878T-28" target="pdH0zqSJrU-gVliZ878T-29" edge="1">
                    <mxGeometry width="50" height="50" relative="1" as="geometry">
                        <mxPoint x="290" y="180" as="sourcePoint"/>
                        <mxPoint x="340" y="130" as="targetPoint"/>
                    </mxGeometry>
                </mxCell>
                <mxCell id="pdH0zqSJrU-gVliZ878T-32" value="Perform the checks" style="ellipse;whiteSpace=wrap;html=1;aspect=fixed;fontColor=#333333;strokeColor=#666666;fillColor=#f5f5f5;" parent="WIyWlLk6GJQsqaUBKTNV-1" vertex="1">
                    <mxGeometry x="470" y="50" width="80" height="80" as="geometry"/>
                </mxCell>
                <mxCell id="pdH0zqSJrU-gVliZ878T-33" value="Capture the output logs" style="ellipse;whiteSpace=wrap;html=1;aspect=fixed;fontColor=#333333;strokeColor=#666666;fillColor=#f5f5f5;" parent="WIyWlLk6GJQsqaUBKTNV-1" vertex="1">
                    <mxGeometry x="470" y="160" width="80" height="80" as="geometry"/>
                </mxCell>
                <mxCell id="pdH0zqSJrU-gVliZ878T-34" value="Update the dashboard" style="ellipse;whiteSpace=wrap;html=1;aspect=fixed;fontColor=#333333;strokeColor=#666666;fillColor=#f5f5f5;" parent="WIyWlLk6GJQsqaUBKTNV-1" vertex="1">
                    <mxGeometry x="470" y="270" width="80" height="80" as="geometry"/>
                </mxCell>
                <mxCell id="pdH0zqSJrU-gVliZ878T-35" value="" style="endArrow=classic;html=1;rounded=0;labelBackgroundColor=default;fontColor=default;fillColor=default;entryX=0;entryY=0.5;entryDx=0;entryDy=0;strokeColor=#FFFFFF;" parent="WIyWlLk6GJQsqaUBKTNV-1" target="pdH0zqSJrU-gVliZ878T-32" edge="1">
                    <mxGeometry width="50" height="50" relative="1" as="geometry">
                        <mxPoint x="410" y="90" as="sourcePoint"/>
                        <mxPoint x="400" y="160" as="targetPoint"/>
                    </mxGeometry>
                </mxCell>
                <mxCell id="pdH0zqSJrU-gVliZ878T-36" value="" style="endArrow=classic;html=1;rounded=0;labelBackgroundColor=default;fontColor=default;fillColor=default;exitX=0.5;exitY=1;exitDx=0;exitDy=0;entryX=0.5;entryY=0;entryDx=0;entryDy=0;strokeColor=#FFFFFF;" parent="WIyWlLk6GJQsqaUBKTNV-1" source="pdH0zqSJrU-gVliZ878T-32" target="pdH0zqSJrU-gVliZ878T-33" edge="1">
                    <mxGeometry width="50" height="50" relative="1" as="geometry">
                        <mxPoint x="350" y="210" as="sourcePoint"/>
                        <mxPoint x="400" y="160" as="targetPoint"/>
                    </mxGeometry>
                </mxCell>
                <mxCell id="pdH0zqSJrU-gVliZ878T-37" value="" style="endArrow=classic;html=1;rounded=0;labelBackgroundColor=default;fontColor=default;fillColor=default;exitX=0.5;exitY=1;exitDx=0;exitDy=0;entryX=0.5;entryY=0;entryDx=0;entryDy=0;strokeColor=#FFFFFF;" parent="WIyWlLk6GJQsqaUBKTNV-1" source="pdH0zqSJrU-gVliZ878T-33" target="pdH0zqSJrU-gVliZ878T-34" edge="1">
                    <mxGeometry width="50" height="50" relative="1" as="geometry">
                        <mxPoint x="350" y="210" as="sourcePoint"/>
                        <mxPoint x="400" y="160" as="targetPoint"/>
                    </mxGeometry>
                </mxCell>
            </root>
        </mxGraphModel>
    </diagram>
</mxfile>